<svg id="Layer_1" data-name="Layer 1" xmlns="http://www.w3.org/2000/svg" viewBox="343.42 344.67 369.28 369.28">
  <defs fill="#ffdb70" style="--darkreader-inline-fill: var(--darkreader-text-ffdb70, #ffff5c);" data-darkreader-inline-fill="">
    <style>
      .cls-1 {
        fill: #ffdb70;
        stroke-width: 0px;
      }
    </style><style class="darkreader darkreader--sync" media="screen"/>
  </defs>
  <path class="cls-1" d="m648.49,529.55c7.01-7.02,14.02-14.04,21.03-21.06.05-1.19.21-7.49-4.61-12.69-5.49-5.91-12.95-5.58-13.96-5.52l-9.05,9.09-5.95-27.39-.38-1.69,35.07-35.15h.04c5.6-5.68,10.8-11.71,15.57-18.12,4.75-6.32,9.08-12.94,12.97-19.82,1.84-3.22,3.56-6.54,5.15-9.9,1.52-3.14,2.86-6.34,4.09-9.65,1.11-2.98,2.07-6.04,2.85-9.14.68-2.86,1.13-5.79,1.34-8.69.11-1.58-.02-3.13-.44-4.65-.66-2.4-1.96-4.57-3.72-6.28-1.71-1.77-3.88-3.07-6.28-3.72-1.52-.42-3.07-.55-4.65-.44-2.9.21-5.83.66-8.69,1.34-3.1.78-6.16,1.74-9.14,2.85-3.31,1.23-6.51,2.56-9.65,4.09-3.36,1.59-6.68,3.31-9.9,5.15-6.88,3.89-13.5,8.22-19.82,12.97-6.41,4.77-12.43,9.98-18.11,15.57v.04s-35.16,35.07-35.16,35.07l-1.69-.38-27.39-5.95,9.09-9.05c.06-1.01.4-8.47-5.52-13.96-5.2-4.83-11.49-4.67-12.69-4.61-7.02,7.01-14.04,14.02-21.06,21.03l-145.08-31.66-35.46,36.66,113.47,53.65c13.06,6.21,24.96,14.66,35.12,25.05l10.06,10.28-26.13,26.09c-2.88,2.89-5.71,5.88-8.43,8.94-2.92,3.34-5.81,6.73-8.64,10.18-6.01,7.43-11.73,15.06-17.21,22.84-1.11,1.62-2.26,3.23-3.39,4.88l-2.89-.58-68.91-14.06-26.9,25.71,72.51,34.33-3.04,6.53c-.5,1.07-.93,2.17-1.25,3.34-.34,1.08-.53,2.24-.6,3.43-.05,1.41.14,2.84.57,4.17.53,1.66,1.47,3.16,2.74,4.34,1.18,1.27,2.67,2.21,4.34,2.74,1.33.43,2.76.62,4.17.57,1.19-.08,2.35-.27,3.43-.6,1.17-.32,2.26-.74,3.34-1.25l6.53-3.04,34.33,72.51,25.71-26.9-14.06-68.91-.58-2.89c1.66-1.12,3.27-2.27,4.88-3.39,7.78-5.48,15.41-11.2,22.84-17.21,3.45-2.83,6.84-5.72,10.18-8.64,3.06-2.72,6.05-5.54,8.94-8.43l26.09-26.13,10.28,10.06c10.39,10.16,18.84,22.06,25.05,35.12l53.65,113.47,36.66-35.46-31.66-145.08Z" fill="#ffdb70" style="--darkreader-inline-fill: var(--darkreader-background-ffdb70, #5b3400);" data-darkreader-inline-fill=""/>
</svg>